<?xml version="1.0" encoding="utf-8"?>
<!-- Generator: Adobe Illustrator 25.4.1, SVG Export Plug-In . SVG Version: 6.00 Build 0)  -->
<svg version="1.1" id="Layer_1" xmlns="http://www.w3.org/2000/svg" xmlns:xlink="http://www.w3.org/1999/xlink" x="0px" y="0px"
	 viewBox="0 0 40 40" style="enable-background:new 0 0 40 40;" xml:space="preserve">
<style type="text/css">
	.st0{fill:#ECBE60;}
</style>
<g>
	<rect x="0.12" y="0.12" class="st0" width="39.75" height="39.75"/>
	<path d="M39.75,0.25v39.5H0.25V0.25H39.75 M40,0H0v40h40V0L40,0z"/>
</g>
<g>
	<g id="XMLID_00000102510410446905341430000001188959511102728594_">
		<path id="XMLID_00000122682724830597067630000007613046607563552389_" d="M15.01,22.47h4.29v16.69c0,0.33,0.28,0.6,0.63,0.6h7.28
			c0.34,0,0.63-0.27,0.63-0.6V22.56h4.93c0.32,0,0.59-0.22,0.63-0.53l0.75-6.15c0.02-0.17-0.04-0.34-0.15-0.46
			c-0.12-0.13-0.28-0.2-0.47-0.2h-5.67v-3.85c0-1.16,0.66-1.75,1.97-1.75c0.19,0,3.72,0,3.72,0c0.34,0,0.63-0.27,0.63-0.6V3.37
			c0-0.33-0.28-0.6-0.63-0.6H28.4c-0.04,0-0.12,0-0.24,0c-0.89,0-3.98,0.17-6.41,2.29c-2.71,2.35-2.33,5.17-2.23,5.66v4.51h-4.5
			c-0.34,0-0.63,0.27-0.63,0.6v6.07C14.38,22.2,14.67,22.47,15.01,22.47z"/>
	</g>
</g>
</svg>
