<?xml version="1.0" encoding="utf-8"?>
<!-- Generator: Adobe Illustrator 25.4.1, SVG Export Plug-In . SVG Version: 6.00 Build 0)  -->
<svg version="1.1" id="Layer_1" xmlns="http://www.w3.org/2000/svg" xmlns:xlink="http://www.w3.org/1999/xlink" x="0px" y="0px"
	 viewBox="0 0 40 40" style="enable-background:new 0 0 40 40;" xml:space="preserve">
<style type="text/css">
	.st0{fill:#FFFFFF;}
	.st1{fill:#ECBE60;}
</style>
<g>
	<rect x="0.12" y="0.12" width="39.75" height="39.75"/>
	<path d="M39.75,0.25v39.5H0.25V0.25H39.75 M40,0H0v40h40V0L40,0z"/>
</g>
<g>
	<path class="st0" d="M11.87,39.06c-6.27,0-11.37-5.11-11.37-11.39V11.83c0-6.28,5.1-11.39,11.37-11.39h15.82
		c6.27,0,11.37,5.11,11.37,11.39v15.84c0,6.28-5.1,11.39-11.37,11.39H11.87z"/>
	<path d="M27.69,0.94c6,0,10.88,4.88,10.88,10.89v15.84c0,6.01-4.87,10.89-10.88,10.89H11.87c-6,0-10.88-4.88-10.88-10.89V11.83
		c0-6.01,4.87-10.89,10.88-10.89H27.69 M27.69-0.05H11.87C5.34-0.05,0,5.3,0,11.83v15.84c0,6.53,5.34,11.88,11.87,11.88h15.82
		c6.53,0,11.87-5.35,11.87-11.88V11.83C39.55,5.3,34.21-0.05,27.69-0.05L27.69-0.05z"/>
</g>
<path class="st1" d="M1.9,34.02c-0.61-0.85-1.28-2.1-1.24-12.85C0.71,7.96,1.73,6.19,2.61,5.1C3.37,4.15,6.6,0.47,15.04,0.56
	c2.31,0.39,4.15,0.46,5.42,0.46c1.1,0,1.93-0.07,3.78-0.06c1.42,0,2.57,0.04,3.32,0.07c0.99-0.04,2.55,0.02,4.32,0.65
	c0.71,0.25,3.48,1.27,5.35,3.91c2.35,3.32,2,7.38,1.62,11.86c-0.06,0.75-0.14,1.37-0.21,1.8c0.19,1.59,0.34,3.82,0.1,6.47
	c-0.26,2.93-0.56,6.39-2.22,8.76c-3,4.27-9.45,4.17-16.85,4.06C11.37,38.42,5.03,38.34,1.9,34.02z"/>
<g>
	<g>
		<g>
			<g>
				<path d="M27.71,0.53H11.77C5.3,0.53,0.03,5.72,0.03,12.09v15.81c0,6.38,5.26,11.56,11.74,11.56h15.94
					c6.47,0,11.74-5.19,11.74-11.56V12.09C39.45,5.72,34.18,0.53,27.71,0.53z M37.88,27.91c0,5.52-4.56,10.01-10.16,10.01H11.77
					c-5.61,0-10.16-4.49-10.16-10.01V12.09c0-5.52,4.56-10.01,10.16-10.01h15.94c5.61,0,10.16,4.49,10.16,10.01L37.88,27.91
					L37.88,27.91z"/>
				<path d="M27.71,4.97H11.77c-3.98,0-7.24,3.2-7.24,7.13v15.81c0,3.93,3.24,7.13,7.24,7.13h15.94c3.98,0,7.24-3.2,7.24-7.13V12.09
					C34.95,8.16,31.71,4.97,27.71,4.97z"/>
			</g>
		</g>
	</g>
	<g>
		<g>
			<g>
				<path class="st1" d="M19.74,9.98C14.13,9.98,9.57,14.47,9.57,20c0,5.52,4.56,10.03,10.18,10.03c5.61,0,10.18-4.49,10.18-10.03
					C29.92,14.48,25.35,9.98,19.74,9.98z M20.59,25.65c-3.02,0.5-6.06-1.72-6.56-4.73c-0.37-2.25,0.74-4.52,2.49-5.64
					c2.88-1.85,7.52-0.58,8.67,2.81C26.23,21.18,24.02,25.07,20.59,25.65z"/>
				<path d="M19.74,14.3c-3.19,0-5.78,2.55-5.78,5.7c0,3.15,2.59,5.7,5.78,5.7s5.78-2.55,5.78-5.7
					C25.53,16.86,22.93,14.3,19.74,14.3z"/>
			</g>
		</g>
	</g>
	<g>
		<g>
			<path class="st1" d="M29.34,8.12c-1.34,0-2.44,1.08-2.44,2.41s1.1,2.41,2.44,2.41c1.34,0,2.44-1.08,2.44-2.41
				S30.7,8.12,29.34,8.12z"/>
		</g>
	</g>
</g>
<path d="M6.21,15.04"/>
<path class="st1" d="M29.23,9.73c0.25,0.47,0.49,0.94,0.74,1.41"/>
</svg>
