<?xml version="1.0" encoding="utf-8"?>
<!-- Generator: Adobe Illustrator 25.4.1, SVG Export Plug-In . SVG Version: 6.00 Build 0)  -->
<svg version="1.1" id="Layer_1" xmlns="http://www.w3.org/2000/svg" xmlns:xlink="http://www.w3.org/1999/xlink" x="0px" y="0px"
	 viewBox="0 0 40 40" style="enable-background:new 0 0 40 40;" xml:space="preserve">
<style type="text/css">
	.st0{fill:#ECBE60;}
</style>
<g>
	<rect x="0.12" y="0.12" class="st0" width="39.75" height="39.75"/>
	<path d="M39.75,0.25v39.5H0.25V0.25H39.75 M40,0H0v40h40V0L40,0z"/>
</g>
<g>
	<path d="M10.34,4.38c-1.78,0-3.08,1.32-3.08,3.15s1.26,3.15,3.02,3.15c0.9,0,1.69-0.32,2.26-0.92c0.55-0.57,0.85-1.37,0.85-2.25
		C13.34,5.67,12.09,4.38,10.34,4.38z"/>
	<path d="M7.8,32.02h5.13v-20.3H7.8V32.02z"/>
	<path d="M26.46,11.71c-2.38,0-3.83,0.89-4.68,1.71l-0.16-1.71h-5.81v20.3h5.68V21.34c0-0.45,0.17-1.41,0.28-1.67
		c0.69-1.59,1.61-1.59,3.02-1.59c1.61,0,2.98,1.64,2.98,3.56V32h5.71V20.53C33.49,14.47,29.85,11.71,26.46,11.71z"/>
</g>
</svg>
