<?xml version="1.0" encoding="utf-8"?>
<!-- Generator: Adobe Illustrator 25.4.1, SVG Export Plug-In . SVG Version: 6.00 Build 0)  -->
<svg version="1.1" id="Layer_1" xmlns="http://www.w3.org/2000/svg" xmlns:xlink="http://www.w3.org/1999/xlink" x="0px" y="0px"
	 viewBox="0 0 40 40" style="enable-background:new 0 0 40 40;" xml:space="preserve">
<style type="text/css">
	.st0{fill:#ECBE60;}
</style>
<g>
	<rect x="0.12" y="0.12" class="st0" width="39.75" height="39.75"/>
	<path d="M39.75,0.25v39.5H0.25V0.25H39.75 M40,0H0v40h40V0L40,0z"/>
</g>
<g>
	<path d="M32.36,6.31L4.43,17.61c-1.91,0.81-1.9,1.92-0.35,2.42l7.17,2.35l16.59-10.99c0.78-0.5,1.5-0.23,0.91,0.32L15.32,24.44
		h-0.01h0.01l-0.49,7.76c0.72,0,1.04-0.35,1.45-0.76l3.49-3.55l7.24,5.61c1.33,0.77,2.3,0.37,2.63-1.3l4.76-23.52
		C34.87,6.63,33.63,5.71,32.36,6.31z"/>
</g>
</svg>
